<svg id="svg" version="1.1" xmlns="http://www.w3.org/2000/svg" xmlns:xlink="http://www.w3.org/1999/xlink" width="400" height="400" viewBox="0, 0, 400,400"><g id="svgg"><path id="path0" d="M115.300 206.812 C 114.393 207.177,114.051 208.000,114.807 208.000 C 115.030 208.000,115.981 208.765,116.920 209.700 C 117.858 210.635,119.610 212.320,120.813 213.444 C 122.016 214.569,123.990 216.551,125.200 217.850 C 126.410 219.148,128.480 221.232,129.800 222.480 C 131.120 223.728,133.482 226.066,135.048 227.675 C 136.615 229.284,138.595 230.959,139.448 231.397 C 140.302 231.835,142.676 233.152,144.724 234.323 C 153.830 239.529,169.248 240.573,170.981 236.100 C 171.384 235.061,170.730 234.318,169.643 234.579 C 163.245 236.120,153.005 234.810,147.238 231.714 C 140.960 228.343,139.542 227.196,130.208 217.932 C 119.710 207.512,117.556 205.905,115.300 206.812 M66.058 241.634 C 62.409 243.458,59.208 249.218,58.233 255.716 C 58.079 256.747,57.313 258.974,56.532 260.665 C 53.359 267.532,55.102 273.277,61.224 276.132 C 69.863 280.161,81.467 281.990,88.600 280.446 C 89.700 280.208,93.372 279.907,96.760 279.776 C 100.149 279.645,104.289 279.279,105.960 278.963 C 107.632 278.646,110.170 278.195,111.600 277.961 C 113.030 277.726,116.000 277.203,118.200 276.800 C 120.400 276.396,123.723 275.945,125.585 275.798 C 127.447 275.651,130.406 275.173,132.160 274.736 C 134.706 274.103,137.133 273.908,144.175 273.773 C 153.264 273.598,155.200 273.285,155.200 271.991 C 155.200 270.185,138.362 269.593,131.515 271.158 C 129.692 271.574,126.940 272.040,125.400 272.192 C 121.766 272.552,113.594 273.836,105.800 275.273 C 101.663 276.035,95.107 276.548,83.000 277.054 C 76.979 277.307,69.868 276.244,67.916 274.801 C 67.320 274.361,66.531 274.000,66.163 274.000 C 64.398 274.000,59.873 270.238,59.205 268.215 C 58.868 267.193,59.008 266.360,60.020 263.390 C 60.692 261.415,61.426 258.990,61.651 258.000 C 64.814 244.088,67.944 241.763,78.697 245.337 C 81.064 246.124,84.477 247.218,86.282 247.768 C 88.613 248.480,90.601 249.475,93.142 251.204 C 97.267 254.010,98.928 254.425,99.127 252.698 C 99.435 250.023,92.205 244.499,87.200 243.585 C 82.614 242.748,81.455 242.457,78.600 241.429 C 74.304 239.882,69.404 239.962,66.058 241.634 M214.200 288.787 C 213.540 288.960,211.560 289.416,209.800 289.799 C 205.985 290.631,202.002 291.731,199.800 292.562 C 198.920 292.893,197.480 293.187,196.600 293.213 C 193.973 293.292,191.800 294.106,191.800 295.011 C 191.800 296.808,198.557 297.378,201.640 295.840 C 202.383 295.469,205.244 294.626,207.996 293.967 C 210.748 293.308,213.702 292.581,214.561 292.350 C 215.420 292.120,218.000 291.940,220.296 291.951 C 224.999 291.973,224.465 291.757,234.400 297.636 C 238.575 300.106,239.258 300.380,241.800 300.602 C 243.340 300.737,245.770 301.024,247.200 301.241 C 250.540 301.748,263.135 301.915,267.800 301.515 C 269.780 301.345,273.247 301.058,275.504 300.878 C 279.439 300.563,279.668 300.493,281.055 299.175 C 281.993 298.284,282.566 297.976,282.684 298.300 C 282.896 298.879,284.000 298.983,284.000 298.424 C 284.000 298.217,283.822 297.937,283.605 297.803 C 283.387 297.669,283.927 296.876,284.805 296.041 C 289.020 292.032,284.967 291.414,279.510 295.233 C 277.598 296.572,276.741 296.896,274.310 297.199 C 272.710 297.398,270.230 297.746,268.800 297.972 C 264.753 298.613,251.820 298.505,248.135 297.800 C 246.411 297.470,244.190 297.198,243.200 297.196 C 240.779 297.191,235.775 294.756,228.238 289.917 L 225.876 288.400 220.638 288.436 C 217.757 288.456,214.860 288.614,214.200 288.787 " stroke="none" fill="#3a3a3a" fill-rule="evenodd"></path><path id="path1" d="M64.700 180.791 L 62.400 183.141 62.400 185.771 C 62.400 187.257,62.226 188.400,62.000 188.400 C 61.780 188.400,61.600 188.670,61.600 189.000 C 61.600 189.373,61.222 189.600,60.600 189.600 C 59.800 189.600,59.600 189.800,59.600 190.600 C 59.600 191.150,59.407 191.600,59.171 191.600 C 58.479 191.600,57.600 192.679,57.600 193.529 C 57.600 193.961,57.330 194.418,57.000 194.545 C 56.623 194.689,56.400 195.301,56.400 196.187 C 56.400 196.964,56.220 197.600,56.000 197.600 C 55.780 197.600,55.600 198.149,55.600 198.819 C 55.600 199.606,55.245 200.367,54.600 200.965 C 54.050 201.475,53.600 202.276,53.600 202.746 C 53.600 203.238,53.346 203.600,53.000 203.600 C 52.627 203.600,52.400 203.978,52.400 204.600 C 52.400 205.150,52.220 205.600,52.000 205.600 C 51.769 205.600,51.600 206.867,51.600 208.600 C 51.600 210.467,51.438 211.600,51.171 211.600 C 50.533 211.600,49.600 212.653,49.600 213.373 C 49.600 213.720,48.700 214.885,47.600 215.962 C 46.457 217.081,45.600 218.280,45.600 218.760 C 45.600 219.222,45.407 219.600,45.171 219.600 C 44.479 219.600,43.600 220.679,43.600 221.529 C 43.600 221.961,43.330 222.418,43.000 222.545 C 42.623 222.689,42.400 223.301,42.400 224.187 C 42.400 224.964,42.220 225.600,42.000 225.600 C 41.760 225.600,41.600 227.200,41.600 229.600 C 41.600 232.000,41.760 233.600,42.000 233.600 C 42.220 233.600,42.400 234.230,42.400 235.000 C 42.400 235.978,42.581 236.400,43.000 236.400 C 43.433 236.400,43.600 236.844,43.600 238.000 C 43.600 238.880,43.780 239.600,44.000 239.600 C 44.220 239.600,44.400 240.050,44.400 240.600 C 44.400 241.222,44.627 241.600,45.000 241.600 C 45.340 241.600,45.600 241.959,45.600 242.429 C 45.600 243.314,46.466 244.400,47.171 244.400 C 47.407 244.400,47.600 244.670,47.600 245.000 C 47.600 245.330,47.780 245.600,48.000 245.600 C 48.220 245.600,48.400 246.050,48.400 246.600 C 48.400 247.150,48.593 247.600,48.829 247.600 C 49.284 247.600,50.400 248.581,50.400 248.981 C 50.400 249.112,49.050 250.543,47.400 252.162 C 45.750 253.780,44.400 255.395,44.400 255.752 C 44.400 256.108,44.220 256.400,44.000 256.400 C 43.780 256.400,43.600 256.670,43.600 257.000 C 43.600 257.330,43.407 257.600,43.171 257.600 C 42.527 257.600,41.600 258.656,41.600 259.391 C 41.600 259.747,41.150 260.455,40.600 260.965 C 40.050 261.475,39.600 262.276,39.600 262.746 C 39.600 263.238,39.346 263.600,39.000 263.600 C 38.627 263.600,38.400 263.978,38.400 264.600 C 38.400 265.150,38.220 265.600,38.000 265.600 C 37.780 265.600,37.600 266.050,37.600 266.600 C 37.600 267.564,37.507 267.600,35.000 267.600 C 33.533 267.600,32.400 267.774,32.400 268.000 C 32.400 268.220,31.770 268.400,31.000 268.400 C 30.022 268.400,29.600 268.581,29.600 269.000 C 29.600 269.330,29.407 269.600,29.171 269.600 C 28.618 269.600,27.600 270.618,27.600 271.171 C 27.600 271.407,27.330 271.600,27.000 271.600 C 26.627 271.600,26.400 271.978,26.400 272.600 C 26.400 273.150,26.220 273.600,26.000 273.600 C 25.753 273.600,25.600 275.667,25.600 279.000 C 25.600 282.333,25.753 284.400,26.000 284.400 C 26.226 284.400,26.400 285.533,26.400 287.000 C 26.400 289.044,26.528 289.600,27.000 289.600 C 27.453 289.600,27.600 290.089,27.600 291.600 C 27.600 292.700,27.780 293.600,28.000 293.600 C 28.220 293.600,28.400 294.050,28.400 294.600 C 28.400 295.150,28.593 295.600,28.829 295.600 C 29.382 295.600,30.400 296.618,30.400 297.171 C 30.400 297.407,30.593 297.600,30.829 297.600 C 31.382 297.600,32.400 298.618,32.400 299.171 C 32.400 299.407,33.120 299.600,34.000 299.600 C 34.880 299.600,35.600 299.780,35.600 300.000 C 35.600 300.257,39.667 300.400,47.000 300.400 C 54.333 300.400,58.400 300.257,58.400 300.000 C 58.400 299.780,58.670 299.600,59.000 299.600 C 59.330 299.600,59.600 299.780,59.600 300.000 C 59.600 300.220,60.050 300.400,60.600 300.400 C 61.222 300.400,61.600 300.627,61.600 301.000 C 61.600 301.419,62.022 301.600,63.000 301.600 C 63.770 301.600,64.400 301.780,64.400 302.000 C 64.400 302.257,68.533 302.400,76.000 302.400 C 83.982 302.400,87.600 302.534,87.600 302.829 C 87.600 303.382,88.618 304.400,89.171 304.400 C 89.407 304.400,89.600 304.670,89.600 305.000 C 89.600 305.340,89.959 305.600,90.429 305.600 C 91.314 305.600,92.400 306.466,92.400 307.171 C 92.400 307.407,92.670 307.600,93.000 307.600 C 93.330 307.600,93.600 307.780,93.600 308.000 C 93.600 308.220,94.230 308.400,95.000 308.400 C 95.978 308.400,96.400 308.581,96.400 309.000 C 96.400 309.489,97.067 309.600,100.000 309.600 C 103.375 309.600,103.600 309.652,103.600 310.429 C 103.600 311.314,104.466 312.400,105.171 312.400 C 105.407 312.400,105.600 312.593,105.600 312.829 C 105.600 313.382,106.618 314.400,107.171 314.400 C 107.407 314.400,107.600 314.670,107.600 315.000 C 107.600 315.373,107.978 315.600,108.600 315.600 C 109.150 315.600,109.600 315.780,109.600 316.000 C 109.600 316.220,110.050 316.400,110.600 316.400 C 111.222 316.400,111.600 316.627,111.600 317.000 C 111.600 317.419,112.022 317.600,113.000 317.600 C 113.770 317.600,114.400 317.780,114.400 318.000 C 114.400 318.231,115.667 318.400,117.400 318.400 C 119.133 318.400,120.400 318.231,120.400 318.000 C 120.400 317.769,121.667 317.600,123.400 317.600 C 125.800 317.600,126.400 317.480,126.400 317.000 C 126.400 316.567,126.844 316.400,128.000 316.400 C 128.880 316.400,129.600 316.220,129.600 316.000 C 129.600 315.780,130.230 315.600,131.000 315.600 C 131.978 315.600,132.400 315.419,132.400 315.000 C 132.400 314.547,132.889 314.400,134.400 314.400 C 135.500 314.400,136.400 314.220,136.400 314.000 C 136.400 313.780,137.300 313.600,138.400 313.600 C 139.911 313.600,140.400 313.453,140.400 313.000 C 140.400 312.627,140.778 312.400,141.400 312.400 C 141.950 312.400,142.400 312.220,142.400 312.000 C 142.400 311.780,143.120 311.600,144.000 311.600 C 145.156 311.600,145.600 311.433,145.600 311.000 C 145.600 310.670,145.780 310.400,146.000 310.400 C 146.220 310.400,146.400 310.670,146.400 311.000 C 146.400 311.330,146.593 311.600,146.829 311.600 C 147.382 311.600,148.400 312.618,148.400 313.171 C 148.400 313.407,148.850 313.600,149.400 313.600 C 149.950 313.600,150.400 313.780,150.400 314.000 C 150.400 314.220,150.850 314.400,151.400 314.400 C 152.022 314.400,152.400 314.627,152.400 315.000 C 152.400 315.433,152.844 315.600,154.000 315.600 C 154.880 315.600,155.600 315.780,155.600 316.000 C 155.600 316.235,157.000 316.400,159.000 316.400 C 161.000 316.400,162.400 316.235,162.400 316.000 C 162.400 315.760,164.000 315.600,166.400 315.600 C 169.689 315.600,170.400 315.493,170.400 315.000 C 170.400 314.501,171.178 314.400,175.000 314.400 C 178.822 314.400,179.600 314.501,179.600 315.000 C 179.600 315.453,180.089 315.600,181.600 315.600 C 182.700 315.600,183.600 315.780,183.600 316.000 C 183.600 316.220,184.050 316.400,184.600 316.400 C 185.222 316.400,185.600 316.627,185.600 317.000 C 185.600 317.419,186.022 317.600,187.000 317.600 C 187.770 317.600,188.400 317.780,188.400 318.000 C 188.400 318.226,189.533 318.400,191.000 318.400 C 193.044 318.400,193.600 318.528,193.600 319.000 C 193.600 319.467,194.133 319.600,196.000 319.600 C 197.333 319.600,198.400 319.778,198.400 320.000 C 198.400 320.258,203.000 320.400,211.400 320.400 C 219.800 320.400,224.400 320.258,224.400 320.000 C 224.400 319.780,225.120 319.600,226.000 319.600 C 227.156 319.600,227.600 319.433,227.600 319.000 C 227.600 318.627,227.978 318.400,228.600 318.400 C 229.150 318.400,229.600 318.220,229.600 318.000 C 229.600 317.780,230.230 317.600,231.000 317.600 C 231.978 317.600,232.400 317.419,232.400 317.000 C 232.400 316.491,233.400 316.400,239.000 316.400 C 243.133 316.400,245.600 316.251,245.600 316.000 C 245.600 315.780,246.230 315.600,247.000 315.600 C 247.978 315.600,248.400 315.419,248.400 315.000 C 248.400 314.567,248.844 314.400,250.000 314.400 C 250.880 314.400,251.600 314.220,251.600 314.000 C 251.600 313.780,252.230 313.600,253.000 313.600 C 253.978 313.600,254.400 313.419,254.400 313.000 C 254.400 312.627,254.778 312.400,255.400 312.400 C 255.950 312.400,256.400 312.220,256.400 312.000 C 256.400 311.774,257.533 311.600,259.000 311.600 C 261.044 311.600,261.600 311.472,261.600 311.000 C 261.600 310.547,262.089 310.400,263.600 310.400 C 264.700 310.400,265.600 310.220,265.600 310.000 C 265.600 309.780,266.500 309.600,267.600 309.600 C 269.111 309.600,269.600 309.453,269.600 309.000 C 269.600 308.627,269.978 308.400,270.600 308.400 C 271.222 308.400,271.600 308.627,271.600 309.000 C 271.600 309.330,271.780 309.600,272.000 309.600 C 272.220 309.600,272.400 310.050,272.400 310.600 C 272.400 311.150,272.593 311.600,272.829 311.600 C 273.064 311.600,273.514 311.857,273.829 312.171 C 274.143 312.486,274.400 312.936,274.400 313.171 C 274.400 313.407,274.593 313.600,274.829 313.600 C 275.064 313.600,275.514 313.857,275.829 314.171 C 276.143 314.486,276.400 314.936,276.400 315.171 C 276.400 315.407,276.593 315.600,276.829 315.600 C 277.064 315.600,277.514 315.857,277.829 316.171 C 278.143 316.486,278.400 316.936,278.400 317.171 C 278.400 317.407,278.670 317.600,279.000 317.600 C 279.330 317.600,279.600 317.780,279.600 318.000 C 279.600 318.220,280.050 318.400,280.600 318.400 C 281.222 318.400,281.600 318.627,281.600 319.000 C 281.600 319.373,281.978 319.600,282.600 319.600 C 283.150 319.600,283.600 319.780,283.600 320.000 C 283.600 320.242,285.333 320.400,288.000 320.400 C 290.667 320.400,292.400 320.242,292.400 320.000 C 292.400 319.780,292.850 319.600,293.400 319.600 C 294.022 319.600,294.400 319.373,294.400 319.000 C 294.400 318.627,294.778 318.400,295.400 318.400 C 295.950 318.400,296.400 318.220,296.400 318.000 C 296.400 317.780,296.670 317.600,297.000 317.600 C 297.330 317.600,297.600 317.330,297.600 317.000 C 297.600 316.581,298.022 316.400,299.000 316.400 C 299.770 316.400,300.400 316.220,300.400 316.000 C 300.400 315.740,305.667 315.600,315.400 315.600 C 328.467 315.600,330.400 315.523,330.400 315.000 C 330.400 314.567,330.844 314.400,332.000 314.400 C 332.880 314.400,333.600 314.220,333.600 314.000 C 333.600 313.780,334.230 313.600,335.000 313.600 C 335.978 313.600,336.400 313.419,336.400 313.000 C 336.400 312.627,336.778 312.400,337.400 312.400 C 337.950 312.400,338.400 312.220,338.400 312.000 C 338.400 311.780,338.670 311.600,339.000 311.600 C 339.330 311.600,339.600 311.330,339.600 311.000 C 339.600 310.670,339.780 310.400,340.000 310.400 C 340.220 310.400,340.400 309.950,340.400 309.400 C 340.400 308.778,340.627 308.400,341.000 308.400 C 341.497 308.400,341.600 307.644,341.600 304.000 C 341.600 300.356,341.497 299.600,341.000 299.600 C 340.627 299.600,340.400 299.222,340.400 298.600 C 340.400 298.050,340.220 297.600,340.000 297.600 C 339.760 297.600,339.600 296.000,339.600 293.600 C 339.600 290.311,339.493 289.600,339.000 289.600 C 338.567 289.600,338.400 289.156,338.400 288.000 C 338.400 287.120,338.220 286.400,338.000 286.400 C 337.780 286.400,337.600 285.950,337.600 285.400 C 337.600 284.778,337.373 284.400,337.000 284.400 C 336.660 284.400,336.400 284.041,336.400 283.571 C 336.400 282.686,335.534 281.600,334.829 281.600 C 334.593 281.600,334.400 281.330,334.400 281.000 C 334.400 280.670,334.220 280.400,334.000 280.400 C 333.780 280.400,333.600 279.950,333.600 279.400 C 333.600 278.778,333.373 278.400,333.000 278.400 C 332.547 278.400,332.400 277.911,332.400 276.400 C 332.400 275.300,332.220 274.400,332.000 274.400 C 331.780 274.400,331.600 273.770,331.600 273.000 C 331.600 272.022,331.419 271.600,331.000 271.600 C 330.670 271.600,330.400 271.407,330.400 271.171 C 330.400 270.618,329.382 269.600,328.829 269.600 C 328.593 269.600,328.400 269.407,328.400 269.171 C 328.400 267.931,327.226 267.600,322.829 267.600 C 320.143 267.600,318.400 267.757,318.400 268.000 C 318.400 268.220,318.027 268.400,317.571 268.400 C 316.686 268.400,315.600 267.534,315.600 266.829 C 315.600 266.593,315.330 266.400,315.000 266.400 C 314.670 266.400,314.400 266.220,314.400 266.000 C 314.400 265.780,313.770 265.600,313.000 265.600 C 312.022 265.600,311.600 265.419,311.600 265.000 C 311.600 264.520,311.000 264.400,308.600 264.400 C 306.200 264.400,305.600 264.520,305.600 265.000 C 305.600 265.433,305.156 265.600,304.000 265.600 L 302.400 265.600 302.400 262.600 C 302.400 260.867,302.231 259.600,302.000 259.600 C 301.780 259.600,301.600 258.880,301.600 258.000 C 301.600 256.844,301.433 256.400,301.000 256.400 C 300.660 256.400,300.400 256.041,300.400 255.571 C 300.400 254.686,299.534 253.600,298.829 253.600 C 298.593 253.600,298.400 253.407,298.400 253.171 C 298.400 252.466,297.314 251.600,296.429 251.600 C 295.959 251.600,295.600 251.340,295.600 251.000 C 295.600 250.567,295.156 250.400,294.000 250.400 C 293.120 250.400,292.400 250.220,292.400 250.000 C 292.400 249.769,291.133 249.600,289.400 249.600 C 287.000 249.600,286.400 249.480,286.400 249.000 C 286.400 248.514,285.756 248.400,283.000 248.400 C 281.000 248.400,279.600 248.235,279.600 248.000 C 279.600 247.780,279.330 247.600,279.000 247.600 C 278.670 247.600,278.400 247.330,278.400 247.000 C 278.400 246.660,278.041 246.400,277.571 246.400 C 276.686 246.400,275.600 245.534,275.600 244.829 C 275.600 244.593,274.880 244.400,274.000 244.400 C 273.120 244.400,272.400 244.220,272.400 244.000 C 272.400 243.765,271.000 243.600,269.000 243.600 C 266.244 243.600,265.600 243.486,265.600 243.000 C 265.600 242.520,265.000 242.400,262.600 242.400 C 260.867 242.400,259.600 242.231,259.600 242.000 C 259.600 241.780,259.150 241.600,258.600 241.600 C 257.978 241.600,257.600 241.373,257.600 241.000 C 257.600 240.627,257.222 240.400,256.600 240.400 C 256.050 240.400,255.600 240.220,255.600 240.000 C 255.600 239.780,254.880 239.600,254.000 239.600 C 252.844 239.600,252.400 239.433,252.400 239.000 C 252.400 238.523,251.819 238.400,249.571 238.400 C 246.807 238.400,245.600 237.922,245.600 236.829 C 245.600 236.593,245.330 236.400,245.000 236.400 C 244.660 236.400,244.400 236.041,244.400 235.571 C 244.400 234.686,243.534 233.600,242.829 233.600 C 242.593 233.600,242.400 233.150,242.400 232.600 C 242.400 232.050,242.220 231.600,242.000 231.600 C 241.780 231.600,241.600 231.330,241.600 231.000 C 241.600 230.670,241.330 230.400,241.000 230.400 C 240.627 230.400,240.400 230.022,240.400 229.400 C 240.400 228.850,240.220 228.400,240.000 228.400 C 239.780 228.400,239.600 227.950,239.600 227.400 C 239.600 226.850,239.407 226.400,239.171 226.400 C 238.618 226.400,237.600 225.382,237.600 224.829 C 237.600 224.593,237.150 224.400,236.600 224.400 C 236.050 224.400,235.600 224.220,235.600 224.000 C 235.600 223.780,234.880 223.600,234.000 223.600 C 232.844 223.600,232.400 223.433,232.400 223.000 C 232.400 222.533,231.867 222.400,230.000 222.400 C 228.133 222.400,227.600 222.533,227.600 223.000 C 227.600 223.433,227.156 223.600,226.000 223.600 C 225.120 223.600,224.400 223.780,224.400 224.000 C 224.400 224.220,224.034 224.400,223.587 224.400 C 223.141 224.400,222.671 224.670,222.545 225.000 C 222.418 225.330,221.884 225.600,221.357 225.600 C 220.773 225.600,220.400 225.366,220.400 225.000 C 220.400 224.627,220.022 224.400,219.400 224.400 C 218.850 224.400,218.400 224.220,218.400 224.000 C 218.400 223.780,217.950 223.600,217.400 223.600 C 216.778 223.600,216.400 223.373,216.400 223.000 C 216.400 222.509,215.710 222.400,212.587 222.400 C 209.568 222.400,208.727 222.525,208.545 223.000 C 208.403 223.370,207.795 223.600,206.957 223.600 C 206.211 223.600,205.600 223.780,205.600 224.000 C 205.600 224.220,205.150 224.400,204.600 224.400 C 203.978 224.400,203.600 224.627,203.600 225.000 C 203.600 225.453,203.111 225.600,201.600 225.600 C 200.089 225.600,199.600 225.453,199.600 225.000 C 199.600 224.627,199.222 224.400,198.600 224.400 C 198.050 224.400,197.600 224.220,197.600 224.000 C 197.600 223.780,197.330 223.600,197.000 223.600 C 196.627 223.600,196.400 223.222,196.400 222.600 C 196.400 222.050,196.220 221.600,196.000 221.600 C 195.780 221.600,195.600 221.150,195.600 220.600 C 195.600 219.978,195.373 219.600,195.000 219.600 C 194.627 219.600,194.400 219.222,194.400 218.600 C 194.400 218.050,194.220 217.600,194.000 217.600 C 193.780 217.600,193.600 217.150,193.600 216.600 C 193.600 215.978,193.373 215.600,193.000 215.600 C 192.627 215.600,192.400 215.222,192.400 214.600 C 192.400 214.050,192.220 213.600,192.000 213.600 C 191.780 213.600,191.600 213.330,191.600 213.000 C 191.600 212.670,191.330 212.400,191.000 212.400 C 190.670 212.400,190.400 212.220,190.400 212.000 C 190.400 211.780,189.950 211.600,189.400 211.600 C 188.778 211.600,188.400 211.373,188.400 211.000 C 188.400 210.581,187.978 210.400,187.000 210.400 C 186.230 210.400,185.600 210.220,185.600 210.000 C 185.600 209.774,184.467 209.600,183.000 209.600 C 181.418 209.600,180.400 209.432,180.400 209.171 C 180.400 208.618,179.382 207.600,178.829 207.600 C 178.593 207.600,178.400 207.407,178.400 207.171 C 178.400 206.618,177.382 205.600,176.829 205.600 C 176.593 205.600,176.400 205.330,176.400 205.000 C 176.400 204.627,176.022 204.400,175.400 204.400 C 174.850 204.400,174.400 204.220,174.400 204.000 C 174.400 203.755,172.467 203.600,169.400 203.600 C 166.333 203.600,164.400 203.755,164.400 204.000 C 164.400 204.220,164.034 204.400,163.587 204.400 C 163.141 204.400,162.671 204.670,162.545 205.000 C 162.403 205.370,161.795 205.600,160.957 205.600 C 160.211 205.600,159.600 205.780,159.600 206.000 C 159.600 206.220,158.700 206.400,157.600 206.400 L 155.600 206.400 155.600 204.400 C 155.600 202.889,155.453 202.400,155.000 202.400 C 154.581 202.400,154.400 201.978,154.400 201.000 C 154.400 200.230,154.220 199.600,154.000 199.600 C 153.780 199.600,153.600 199.150,153.600 198.600 C 153.600 197.978,153.373 197.600,153.000 197.600 C 152.670 197.600,152.400 197.407,152.400 197.171 C 152.400 196.618,151.382 195.600,150.829 195.600 C 150.593 195.600,150.400 195.407,150.400 195.171 C 150.400 193.767,149.380 193.600,140.829 193.600 C 135.476 193.600,132.400 193.746,132.400 194.000 C 132.400 194.220,131.577 194.400,130.571 194.400 C 128.809 194.400,127.600 193.760,127.600 192.829 C 127.600 192.593,126.880 192.400,126.000 192.400 C 125.120 192.400,124.400 192.220,124.400 192.000 C 124.400 191.769,123.133 191.600,121.400 191.600 C 118.467 191.600,118.400 191.578,118.400 190.600 C 118.400 190.050,118.220 189.600,118.000 189.600 C 117.780 189.600,117.600 189.330,117.600 189.000 C 117.600 188.670,117.407 188.400,117.171 188.400 C 116.618 188.400,115.600 187.382,115.600 186.829 C 115.600 186.593,115.150 186.400,114.600 186.400 C 114.050 186.400,113.600 186.220,113.600 186.000 C 113.600 185.755,111.667 185.600,108.600 185.600 C 105.533 185.600,103.600 185.755,103.600 186.000 C 103.600 186.220,102.964 186.400,102.187 186.400 C 101.301 186.400,100.689 186.623,100.545 187.000 C 100.418 187.330,99.884 187.600,99.357 187.600 C 98.831 187.600,98.400 187.780,98.400 188.000 C 98.400 188.220,98.034 188.400,97.587 188.400 C 97.141 188.400,96.671 188.670,96.545 189.000 C 96.418 189.330,95.884 189.600,95.357 189.600 C 94.831 189.600,94.400 189.780,94.400 190.000 C 94.400 190.220,94.034 190.400,93.587 190.400 C 93.141 190.400,92.671 190.670,92.545 191.000 C 92.418 191.330,91.884 191.600,91.357 191.600 C 90.831 191.600,90.400 191.780,90.400 192.000 C 90.400 192.220,90.034 192.400,89.587 192.400 C 89.141 192.400,88.671 192.670,88.545 193.000 C 88.403 193.370,87.795 193.600,86.957 193.600 C 86.017 193.600,85.600 193.415,85.600 193.000 C 85.600 192.670,85.330 192.400,85.000 192.400 C 84.670 192.400,84.400 192.220,84.400 192.000 C 84.400 191.780,83.950 191.600,83.400 191.600 C 82.500 191.600,82.400 191.440,82.400 190.000 C 82.400 189.120,82.220 188.400,82.000 188.400 C 81.780 188.400,81.600 187.770,81.600 187.000 C 81.600 186.022,81.419 185.600,81.000 185.600 C 80.627 185.600,80.400 185.222,80.400 184.600 C 80.400 184.050,80.220 183.600,80.000 183.600 C 79.780 183.600,79.600 183.150,79.600 182.600 C 79.600 181.978,79.373 181.600,79.000 181.600 C 78.670 181.600,78.400 181.407,78.400 181.171 C 78.400 180.466,77.314 179.600,76.429 179.600 C 75.959 179.600,75.600 179.340,75.600 179.000 C 75.600 178.503,74.865 178.404,71.300 178.421 L 67.000 178.442 64.700 180.791 M119.021 204.183 C 121.441 205.194,124.759 208.096,133.000 216.407 C 141.697 225.179,142.383 225.741,148.009 228.721 C 153.803 231.790,158.389 232.553,167.633 231.986 C 173.297 231.638,175.563 235.025,172.175 238.775 C 167.272 244.202,152.483 242.403,139.728 234.829 C 135.751 232.467,114.799 212.590,113.267 209.726 C 111.265 205.983,114.915 202.467,119.021 204.183 M112.030 206.510 C 111.981 206.988,111.432 206.896,111.260 206.380 C 111.172 206.116,111.316 205.972,111.580 206.060 C 111.844 206.148,112.046 206.350,112.030 206.510 M80.400 238.875 C 81.830 239.423,84.170 240.090,85.600 240.357 C 96.664 242.424,104.794 250.367,100.840 255.249 C 99.267 257.192,96.080 256.654,91.659 253.700 C 88.913 251.865,86.998 250.926,84.459 250.166 C 82.557 249.597,79.333 248.607,77.295 247.966 C 69.636 245.555,67.539 246.882,65.232 255.602 C 64.544 258.202,63.626 261.363,63.191 262.627 C 61.515 267.496,62.251 269.032,67.400 271.412 C 73.394 274.182,79.468 274.863,89.104 273.845 C 92.461 273.490,96.421 273.195,97.904 273.189 C 99.387 273.183,104.200 272.553,108.600 271.789 C 113.000 271.025,119.390 270.035,122.800 269.590 C 126.210 269.145,130.350 268.480,132.000 268.113 C 136.534 267.102,152.243 267.108,154.868 268.121 C 159.042 269.732,159.070 274.358,154.915 276.067 C 154.263 276.335,149.735 276.650,144.000 276.825 C 137.303 277.030,133.444 277.322,131.811 277.747 C 130.498 278.089,128.158 278.477,126.611 278.608 C 123.911 278.838,117.239 279.906,107.714 281.634 C 99.193 283.179,78.660 283.995,72.918 283.017 C 60.313 280.868,52.000 274.543,52.000 267.103 C 52.000 264.804,52.275 263.707,53.827 259.800 C 54.352 258.480,55.245 255.690,55.812 253.600 C 58.573 243.427,61.107 239.944,67.197 237.951 C 69.385 237.234,77.628 237.811,80.400 238.875 M226.835 286.038 C 227.624 286.235,229.362 287.102,230.698 287.965 C 233.402 289.713,236.875 291.697,239.600 293.052 C 242.401 294.444,249.227 295.200,258.994 295.200 C 271.735 295.200,275.141 294.655,279.336 291.944 C 284.692 288.482,289.200 289.296,289.200 293.726 C 289.200 296.353,283.159 302.161,279.400 303.148 C 268.544 305.999,240.216 304.854,234.866 301.349 C 234.345 301.007,233.567 300.820,233.137 300.932 C 232.589 301.076,232.256 300.873,232.021 300.255 C 231.333 298.444,224.335 295.086,220.852 294.894 C 217.464 294.707,209.029 296.338,203.529 298.242 C 194.861 301.244,186.956 298.606,189.372 293.516 C 190.224 291.719,191.595 290.989,195.200 290.410 C 196.850 290.145,199.640 289.499,201.400 288.975 C 212.503 285.667,221.284 284.653,226.835 286.038 " stroke="none" fill="#c3c3c3" fill-rule="evenodd"></path><path id="path2" d="M115.144 206.001 L 114.200 206.801 115.367 206.223 C 117.817 205.010,119.421 206.185,131.400 217.976 C 143.433 229.820,146.978 232.127,155.800 233.856 C 158.102 234.307,160.671 234.443,164.952 234.341 C 171.716 234.181,172.472 234.469,171.121 236.695 C 169.598 239.205,164.760 240.131,157.904 239.225 C 151.042 238.319,149.438 237.781,143.281 234.320 L 137.470 231.053 125.906 219.526 C 115.456 209.111,112.818 206.618,114.451 208.700 C 114.753 209.085,119.950 214.354,126.000 220.408 C 137.808 232.224,136.412 231.113,146.600 236.812 C 151.309 239.446,164.437 240.998,168.313 239.379 C 171.356 238.107,172.998 235.326,171.460 234.049 C 170.781 233.486,170.079 233.463,164.400 233.817 C 156.462 234.311,150.724 232.687,142.800 227.701 C 141.590 226.939,136.275 222.025,130.989 216.781 C 119.719 205.600,117.443 204.051,115.144 206.001 M66.425 240.059 C 61.839 241.857,59.717 245.268,57.005 255.200 C 56.495 257.070,55.570 259.770,54.950 261.200 C 50.783 270.815,57.289 278.318,72.328 281.238 C 78.085 282.356,95.982 281.772,106.000 280.139 C 108.090 279.798,111.330 279.273,113.200 278.972 C 115.070 278.672,117.950 278.163,119.600 277.843 C 121.250 277.522,124.130 277.136,126.000 276.985 C 127.870 276.834,130.829 276.358,132.575 275.927 C 135.021 275.322,137.869 275.080,144.993 274.871 C 152.946 274.638,154.390 274.499,155.341 273.875 C 156.980 272.801,156.716 270.858,154.800 269.901 C 152.625 268.814,136.657 268.877,130.800 269.996 C 128.490 270.437,123.990 271.161,120.800 271.606 C 117.610 272.050,112.300 272.873,109.000 273.434 C 105.700 273.996,100.660 274.622,97.800 274.827 C 94.940 275.031,90.890 275.381,88.800 275.603 C 77.530 276.803,67.613 274.852,62.748 270.477 C 60.159 268.150,59.996 267.087,61.529 262.550 C 62.189 260.597,62.847 258.370,62.992 257.600 C 65.169 246.016,68.647 243.507,78.307 246.553 C 80.668 247.298,83.500 248.136,84.600 248.417 C 87.033 249.037,89.827 250.395,92.329 252.172 C 96.399 255.064,98.681 255.564,99.826 253.816 C 102.008 250.486,94.463 243.649,87.200 242.376 C 85.770 242.125,82.800 241.355,80.600 240.665 C 75.289 238.999,69.734 238.761,66.425 240.059 M79.000 240.782 C 80.320 241.268,83.200 242.010,85.400 242.432 C 93.172 243.921,100.910 249.701,99.803 253.190 C 99.198 255.096,97.231 254.738,92.964 251.946 C 89.700 249.810,86.034 248.000,84.972 248.000 C 84.638 248.000,82.153 247.280,79.448 246.400 C 68.040 242.689,65.762 244.187,62.417 257.600 C 62.005 259.250,61.293 261.663,60.834 262.962 C 57.880 271.326,67.165 276.831,83.200 276.223 C 99.253 275.614,101.024 275.432,114.600 272.997 C 116.360 272.681,119.420 272.230,121.400 271.995 C 123.380 271.759,127.520 271.108,130.600 270.548 C 141.377 268.587,156.000 269.393,156.000 271.947 C 156.000 273.964,155.006 274.181,144.458 274.466 C 137.155 274.664,134.030 274.901,132.400 275.384 C 131.190 275.743,128.400 276.203,126.200 276.407 C 122.684 276.734,118.669 277.367,110.800 278.836 C 104.200 280.068,101.381 280.397,97.400 280.400 C 94.980 280.402,91.380 280.669,89.400 280.995 C 77.790 282.902,62.758 279.682,57.355 274.130 C 53.674 270.347,53.210 266.587,55.710 260.800 C 56.518 258.930,57.369 256.500,57.602 255.400 C 60.509 241.660,67.817 236.668,79.000 240.782 M213.600 287.662 C 209.639 288.489,202.097 290.394,200.409 290.993 C 199.424 291.343,197.388 291.803,195.886 292.016 C 191.520 292.635,189.734 294.009,190.773 295.950 C 191.994 298.231,197.593 298.540,203.140 296.632 C 208.934 294.639,216.916 293.109,220.725 293.261 C 224.586 293.415,225.180 293.660,233.156 298.372 C 239.826 302.313,244.627 303.031,261.800 302.658 C 276.416 302.341,278.972 302.071,281.301 300.597 C 282.314 299.956,283.060 299.297,282.959 299.133 C 282.857 298.969,281.992 299.386,281.036 300.060 C 277.408 302.617,253.545 303.256,240.600 301.143 C 238.781 300.846,237.184 300.140,234.000 298.227 C 225.175 292.926,224.369 292.604,220.034 292.647 C 216.032 292.688,208.518 294.214,202.600 296.189 C 199.200 297.324,196.633 297.615,194.139 297.149 C 189.126 296.212,190.170 293.230,195.738 292.584 C 197.077 292.429,199.781 291.785,201.746 291.153 C 213.305 287.438,224.374 286.579,228.271 289.094 C 231.853 291.406,238.738 295.240,240.274 295.779 C 245.220 297.511,262.541 298.200,270.830 296.993 C 276.847 296.117,277.008 296.070,279.190 294.569 C 285.109 290.498,289.773 291.583,285.691 296.082 C 284.833 297.027,284.010 298.134,283.862 298.543 C 283.713 298.952,284.397 298.412,285.380 297.343 C 290.886 291.360,286.019 289.358,278.328 294.443 C 274.285 297.116,258.097 297.851,243.682 296.016 C 240.615 295.626,237.550 294.194,230.800 290.000 C 226.249 287.172,220.007 286.323,213.600 287.662 " stroke="none" fill="#6c6c6c" fill-rule="evenodd"></path><path id="path3" d="M115.282 206.279 C 113.414 207.184,113.026 206.699,125.740 219.364 L 137.480 231.059 143.286 234.323 C 149.438 237.781,151.043 238.319,157.904 239.225 C 164.760 240.131,169.598 239.205,171.121 236.695 C 172.472 234.469,171.716 234.181,164.952 234.341 C 150.821 234.677,145.960 232.306,131.400 217.976 C 119.308 206.074,117.866 205.028,115.282 206.279 M118.970 207.574 C 120.059 208.214,125.088 212.850,130.208 217.932 C 139.542 227.196,140.960 228.343,147.238 231.714 C 153.005 234.810,163.245 236.120,169.643 234.579 C 170.730 234.318,171.384 235.061,170.981 236.100 C 169.248 240.573,153.830 239.529,144.724 234.323 C 142.676 233.152,140.302 231.835,139.448 231.397 C 138.595 230.959,136.615 229.284,135.048 227.675 C 133.482 226.066,131.120 223.728,129.800 222.480 C 128.480 221.232,126.410 219.148,125.200 217.850 C 123.990 216.551,122.016 214.569,120.813 213.444 C 119.610 212.320,117.858 210.635,116.920 209.700 C 115.981 208.765,115.030 208.000,114.807 208.000 C 114.051 208.000,114.393 207.177,115.300 206.812 C 116.640 206.274,116.830 206.313,118.970 207.574 M67.259 240.339 C 62.259 242.127,59.500 246.429,57.602 255.400 C 57.369 256.500,56.518 258.930,55.710 260.800 C 53.951 264.871,53.690 268.373,54.955 270.920 C 58.735 278.529,75.163 283.334,89.400 280.995 C 91.380 280.669,94.980 280.402,97.400 280.400 C 101.381 280.397,104.200 280.068,110.800 278.836 C 118.669 277.367,122.684 276.734,126.200 276.407 C 128.400 276.203,131.190 275.743,132.400 275.384 C 134.030 274.901,137.155 274.664,144.458 274.466 C 155.006 274.181,156.000 273.964,156.000 271.947 C 156.000 269.393,141.377 268.587,130.600 270.548 C 127.520 271.108,123.380 271.759,121.400 271.995 C 119.420 272.230,116.360 272.681,114.600 272.997 C 101.024 275.432,99.253 275.614,83.200 276.223 C 67.165 276.831,57.880 271.326,60.834 262.962 C 61.293 261.663,62.005 259.250,62.417 257.600 C 65.762 244.187,68.040 242.689,79.448 246.400 C 82.153 247.280,84.638 248.000,84.972 248.000 C 86.034 248.000,89.700 249.810,92.964 251.946 C 97.231 254.738,99.198 255.096,99.803 253.190 C 100.910 249.701,93.172 243.921,85.400 242.432 C 83.200 242.010,80.320 241.268,79.000 240.782 C 75.570 239.520,70.125 239.315,67.259 240.339 M78.600 241.429 C 81.455 242.457,82.614 242.748,87.200 243.585 C 92.205 244.499,99.435 250.023,99.127 252.698 C 98.928 254.425,97.267 254.010,93.142 251.204 C 90.601 249.475,88.613 248.480,86.282 247.768 C 84.477 247.218,81.064 246.124,78.697 245.337 C 67.944 241.763,64.814 244.088,61.651 258.000 C 61.426 258.990,60.692 261.415,60.020 263.390 C 59.008 266.360,58.868 267.193,59.205 268.215 C 59.873 270.238,64.398 274.000,66.163 274.000 C 66.531 274.000,67.320 274.361,67.916 274.801 C 69.868 276.244,76.979 277.307,83.000 277.054 C 95.107 276.548,101.663 276.035,105.800 275.273 C 113.594 273.836,121.766 272.552,125.400 272.192 C 126.940 272.040,129.692 271.574,131.515 271.158 C 138.362 269.593,155.200 270.185,155.200 271.991 C 155.200 273.285,153.264 273.598,144.175 273.773 C 137.133 273.908,134.706 274.103,132.160 274.736 C 130.406 275.173,127.447 275.651,125.585 275.798 C 123.723 275.945,120.400 276.396,118.200 276.800 C 116.000 277.203,113.030 277.726,111.600 277.961 C 110.170 278.195,107.632 278.646,105.960 278.963 C 104.289 279.279,100.149 279.645,96.760 279.776 C 93.372 279.907,89.700 280.208,88.600 280.446 C 81.467 281.990,69.863 280.161,61.224 276.132 C 55.102 273.277,53.359 267.532,56.532 260.665 C 57.313 258.974,58.079 256.747,58.233 255.716 C 60.127 243.092,67.959 237.597,78.600 241.429 M211.025 288.790 C 207.958 289.445,203.728 290.516,201.625 291.170 C 199.521 291.824,196.782 292.477,195.538 292.621 C 190.142 293.245,189.220 296.230,194.139 297.149 C 196.633 297.615,199.200 297.324,202.600 296.189 C 208.518 294.214,216.032 292.688,220.034 292.647 C 224.369 292.604,225.175 292.926,234.000 298.227 C 237.184 300.140,238.781 300.846,240.600 301.143 C 253.247 303.207,277.238 302.622,280.911 300.159 C 281.840 299.536,282.852 299.080,283.160 299.145 C 283.565 299.230,283.530 299.073,283.035 298.577 C 282.388 297.930,282.273 297.966,280.979 299.221 C 279.672 300.487,279.416 300.565,275.504 300.878 C 273.247 301.058,269.780 301.345,267.800 301.515 C 263.135 301.915,250.540 301.748,247.200 301.241 C 245.770 301.024,243.340 300.737,241.800 300.602 C 239.258 300.380,238.575 300.106,234.400 297.636 C 224.465 291.757,224.999 291.973,220.296 291.951 C 218.000 291.940,215.420 292.120,214.561 292.350 C 213.702 292.581,210.748 293.308,207.996 293.967 C 205.244 294.626,202.383 295.469,201.640 295.840 C 199.816 296.750,195.425 297.013,193.400 296.333 C 190.185 295.255,192.141 293.348,196.600 293.213 C 197.480 293.187,198.920 292.891,199.800 292.557 C 202.792 291.419,205.325 290.760,213.600 288.964 C 215.034 288.653,218.369 288.400,221.038 288.400 L 225.876 288.400 228.238 289.917 C 235.775 294.756,240.779 297.191,243.200 297.196 C 244.190 297.198,246.411 297.470,248.135 297.800 C 251.820 298.505,264.753 298.613,268.800 297.972 C 270.230 297.746,272.710 297.398,274.310 297.199 C 276.741 296.896,277.598 296.572,279.510 295.233 C 284.967 291.414,289.020 292.032,284.805 296.041 C 283.927 296.876,283.367 297.656,283.559 297.774 C 283.750 297.893,284.659 297.174,285.579 296.177 C 289.799 291.598,285.194 290.439,279.190 294.569 C 277.008 296.070,276.847 296.117,270.830 296.993 C 262.541 298.200,245.220 297.511,240.274 295.779 C 238.736 295.240,231.855 291.407,228.259 289.086 C 225.342 287.204,218.969 287.095,211.025 288.790 " stroke="none" fill="#646464" fill-rule="evenodd"></path><path id="path4" d="M114.931 204.183 C 112.907 205.064,112.140 207.618,113.267 209.726 C 114.799 212.590,135.751 232.467,139.728 234.829 C 152.483 242.403,167.272 244.202,172.175 238.775 C 175.563 235.025,173.297 231.638,167.633 231.986 C 158.389 232.553,153.803 231.790,148.009 228.721 C 142.383 225.741,141.697 225.179,133.000 216.407 C 120.995 204.300,118.517 202.623,114.931 204.183 M119.189 206.227 C 120.930 207.037,123.345 209.198,130.989 216.781 C 136.275 222.025,141.590 226.939,142.800 227.701 C 150.724 232.687,156.462 234.311,164.400 233.817 C 170.079 233.463,170.781 233.486,171.460 234.049 C 172.998 235.326,171.356 238.107,168.313 239.379 C 164.437 240.998,151.309 239.446,146.600 236.812 C 136.359 231.083,137.871 232.293,125.500 219.926 C 113.469 207.899,113.175 207.507,115.054 206.029 C 116.382 204.984,116.536 204.992,119.189 206.227 M111.260 206.380 C 111.348 206.644,111.551 206.847,111.710 206.830 C 112.188 206.781,112.096 206.232,111.580 206.060 C 111.316 205.972,111.172 206.116,111.260 206.380 M67.197 237.951 C 61.107 239.944,58.573 243.427,55.812 253.600 C 55.245 255.690,54.352 258.480,53.827 259.800 C 52.275 263.707,52.000 264.804,52.000 267.103 C 52.000 274.543,60.313 280.868,72.918 283.017 C 78.660 283.995,99.193 283.179,107.714 281.634 C 117.239 279.906,123.911 278.838,126.611 278.608 C 128.158 278.477,130.498 278.089,131.811 277.747 C 133.444 277.322,137.303 277.030,144.000 276.825 C 149.735 276.650,154.263 276.335,154.915 276.067 C 159.070 274.358,159.042 269.732,154.868 268.121 C 152.243 267.108,136.534 267.102,132.000 268.113 C 130.350 268.480,126.210 269.145,122.800 269.590 C 119.390 270.035,113.000 271.025,108.600 271.789 C 104.200 272.553,99.387 273.183,97.904 273.189 C 96.421 273.195,92.461 273.490,89.104 273.845 C 79.468 274.863,73.394 274.182,67.400 271.412 C 62.251 269.032,61.515 267.496,63.191 262.627 C 63.626 261.363,64.544 258.202,65.232 255.602 C 67.539 246.882,69.636 245.555,77.295 247.966 C 79.333 248.607,82.557 249.597,84.459 250.166 C 86.998 250.926,88.913 251.865,91.659 253.700 C 96.080 256.654,99.267 257.192,100.840 255.249 C 104.794 250.367,96.664 242.424,85.600 240.357 C 84.170 240.090,81.830 239.423,80.400 238.875 C 77.628 237.811,69.385 237.234,67.197 237.951 M80.600 240.665 C 82.800 241.355,85.770 242.125,87.200 242.376 C 94.463 243.649,102.008 250.486,99.826 253.816 C 98.681 255.564,96.399 255.064,92.329 252.172 C 89.827 250.395,87.033 249.037,84.600 248.417 C 83.500 248.136,80.668 247.298,78.307 246.553 C 68.647 243.507,65.169 246.016,62.992 257.600 C 62.847 258.370,62.189 260.597,61.529 262.550 C 59.996 267.087,60.159 268.150,62.748 270.477 C 67.613 274.852,77.530 276.803,88.800 275.603 C 90.890 275.381,94.940 275.031,97.800 274.827 C 100.660 274.622,105.700 273.996,109.000 273.434 C 112.300 272.873,117.610 272.050,120.800 271.606 C 123.990 271.161,128.490 270.437,130.800 269.996 C 136.657 268.877,152.625 268.814,154.800 269.901 C 156.716 270.858,156.980 272.801,155.341 273.875 C 154.390 274.499,152.946 274.638,144.993 274.871 C 137.869 275.080,135.021 275.322,132.575 275.927 C 130.829 276.358,127.870 276.834,126.000 276.985 C 124.130 277.136,121.250 277.522,119.600 277.843 C 117.950 278.163,115.070 278.672,113.200 278.972 C 111.330 279.273,108.090 279.798,106.000 280.139 C 95.982 281.772,78.085 282.356,72.328 281.238 C 57.289 278.318,50.783 270.815,54.950 261.200 C 55.570 259.770,56.495 257.070,57.005 255.200 C 61.178 239.916,66.926 236.375,80.600 240.665 M217.200 285.624 C 213.379 285.925,207.338 287.206,201.400 288.975 C 199.640 289.499,196.850 290.145,195.200 290.410 C 191.595 290.989,190.224 291.719,189.372 293.516 C 186.956 298.606,194.861 301.244,203.529 298.242 C 209.029 296.338,217.464 294.707,220.852 294.894 C 224.335 295.086,231.333 298.444,232.021 300.255 C 232.256 300.873,232.589 301.076,233.137 300.932 C 233.567 300.820,234.345 301.007,234.866 301.349 C 240.216 304.854,268.544 305.999,279.400 303.148 C 283.159 302.161,289.200 296.353,289.200 293.726 C 289.200 289.296,284.692 288.482,279.336 291.944 C 275.141 294.655,271.735 295.200,258.994 295.200 C 249.227 295.200,242.401 294.444,239.600 293.052 C 236.875 291.697,233.402 289.713,230.698 287.965 C 227.058 285.613,224.028 285.087,217.200 285.624 M226.440 287.668 C 227.188 287.925,229.150 288.974,230.800 290.000 C 237.560 294.201,240.614 295.626,243.682 296.012 C 253.567 297.256,264.545 297.396,271.400 296.365 C 272.940 296.133,274.765 295.862,275.456 295.762 C 276.146 295.662,277.908 294.795,279.370 293.834 C 286.116 289.404,290.474 291.739,285.529 297.134 C 281.115 301.949,279.742 302.269,261.800 302.658 C 244.627 303.031,239.826 302.313,233.156 298.372 C 225.180 293.660,224.586 293.415,220.725 293.261 C 216.916 293.109,208.934 294.639,203.140 296.632 C 197.593 298.540,191.994 298.231,190.773 295.950 C 189.734 294.009,191.520 292.635,195.886 292.016 C 197.388 291.803,199.424 291.343,200.409 290.993 C 202.097 290.394,209.639 288.489,213.600 287.662 C 216.227 287.113,224.839 287.117,226.440 287.668 " stroke="none" fill="#858585" fill-rule="evenodd"></path></g></svg>